<?xml version="1.0"?>
<svg version="1.1" xmlns="http://www.w3.org/2000/svg" width="630" height="150" style=""><path fill="#ffffff" d="M58.84,84.04l-0.16,2.56q0,5.2,5.6,5.2q4.64,0,9.36-3.2t4.72-6.48t-3.84-5.52q-2.56-1.52-8-1.52q-8.08,0-18.04,3.84t-18.68,12.32q-11.44,11.2-11.44,20.56q0,5.52,4.2,8.88t11,3.36q9.44,0,21.92-7.12q10.4-5.84,15.6-12.4l2.32-3.44q-1.44,0-11.92,0.84t-12,1.2t-2.48,0.36q-2.64,0-2.64-1.28q0-2,6.08-3.32t20.56-1.32t19.12,1.12q0.72,0.16,0.72,0.4q0,0.88-5.52,1.28q-6.88,0.56-7.04,0.56q-8.16,10.72-21.12,33.12q-0.72,1.28-1.4,1.28t-0.68-1.04q0-2.8,4.48-10.8l5.6-10.48q-5.12,4.4-13.04,8.24q-10.32,4.88-19.48,4.88t-14-3.96t-4.84-10.6q0-12.24,14.8-24.88q7.44-6.4,18-10.64t18.52-4.24t12.2,3.12q3.28,2.56,3.28,5.76q0,4.56-5.64,8.76t-11.16,4.2q-7.44,0-7.44-8.56q0-3.28,1.36-3.28q1.12,0,1.12,2.24z M80.2936,132.28q3.84,4.8,6.64,4.8q4.56,0,9.84-7.28q3.84-5.36,7.52-13.52l3.04-7.36l-11.76,9.2q-5.44,4.24-8.72,4.24q-1.76,0-2.8-1.2t-1.04-2.72q0-3.44,5.92-11.32t8.64-7.88t2.72,1.84q0,0.72-7.08,8.28t-7.08,10.2q0,1.04,1.36,1.04q2.56,0,10.28-6t11.64-9.92q0.88-1.04,2.48-3.12q1.52-1.76,3.36-1.76t1.84,1.76q0,0.32-3.6,5.68t-3.76,5.68q-2.48,4.8-7.6,14q-7.76,12.48-15.52,12.48q-2.56,0-4.48-2.2t-1.84-4.92z M156.1472,122.04q-5.44,0-5.44-5.04q0-2.88,2.56-7.88t5.36-8.44q-4.96,2.4-11.44,8.68t-9.04,13.16q-0.4,0.64-1.36,0.64q-1.92,0-1.92-2.16q0.8-4.4,3.6-10.08q0.88-1.84,5.2-10.72q-6.24,4.08-10.6,8.76t-8.08,9.4t-4.2,4.72q-1.04,0-1.8-0.96t-0.76-1.92q0-1.44,4.16-10.56l-4.8,5.04q-1.76,1.76-2.2,1.76t-0.44-0.52t0.64-1.16q2.96-2.96,5.28-5.92t7.68-10.56q0.88-1.2,2.48-1.2t1.6,1.52q0,0.56-4.24,7.8t-4.72,9.08q3.28-3.6,9.84-9.68q9.84-9.12,12.96-9.12q0.96,0,1.76,0.56t0.8,1.24t-3.12,6.04q-3.04,5.52-3.36,6.56q8.88-7.44,8.88-7.52q7.52-5.84,10.8-5.84q0.96,0,1.8,0.6t0.84,1.4q0,0.16-5.2,6.76t-5.84,10.84q-0.16,1.44,0.56,2.16t2.6,0.72t5.52-2.6t7.4-7q1.44-1.6,1.96-1.6t0.52,0.4q0,0.56-0.72,1.28q-3.92,4.72-8.44,8.04t-7.08,3.32z M176.0008,124.04q-0.88,0-1.6-0.24q-5.12-1.44-5.12-5.76q0-5.6,7.04-12.96t12.64-7.36q1.84,0,3,1t1.16,2.44q0,4.48-6.76,8.56t-11,4.08q-0.64,0-1.12-0.16q-1.2,2.16-1.2,4.56q0,4.16,3.96,4.16t10.28-5.36q4.88-3.92,8.32-8.32q0.72-0.96,1.24-0.96t0.52,0.48t-0.64,1.36q-4.32,5.68-10.4,10.08t-10.32,4.4z M191.1208,101q0-0.96-2.04-0.96t-5.8,3.12q-5.04,4.16-7.84,8.72q0.48,0.16,1.04,0.16q3.04,0,8.12-3.24t6.36-7.08q0.16-0.4,0.16-0.72z M222.5744,99.08l1.12-0.24q0.88,0,1.68,0.72t0.8,1.12t-4.96,7.72t-4.96,10.2q0,0.24,0.08,0.48q0.4,1.84,1.76,1.84q4.16,0,15.2-13.76q0.24-0.32,0.56-0.32t0.32,0.6t-0.72,1.56q-10.24,13.68-15.6,13.68q-0.72,0-1.36-0.24q-3.52-1.36-3.52-5.28q0-1.36,0.32-2.72l-4.96,4.8q-4.72,4.16-6.84,4.16t-4.04-1.36q-2.16-1.6-2.16-4.24q0-5.84,8.16-13.96t14.96-8.12q2.64,0,3.52,1.84q0.24,0.64,0.4,1.08t0.24,0.44z M198.6544,118.76q0,2.88,2,2.88q4.64,0,12.64-10.16l8.48-11.68q-0.64-1.12-2.08-1.12q-4.88,0-12.96,7.56t-8.08,12.52z M247.228,121.8q-2.32,1.36-5.72,1.36t-5.2-2.24t-3.08-7.12q-1.44,1.44-2,1.44q-0.4,0-0.4-0.56t0.4-0.96q2.64-3.28,8.96-9.44l10.08-9.44q4.32-4.08,5.12-4.08q2.56,0,2.56,1.92q0,0.96-0.76,1.88t-1.12,1.44t-0.76,1q-1.44,2.48-2.92,10.24t-2.28,10.8q6.64-0.08,13.68-8.64q0.8-0.8,1.2-0.8t0.4,0.52t-0.72,1.4q-4.64,5.44-8.64,7.6q-2.4,1.2-6.24,2z M236.428,112.92q0,2.72,1.8,4.44t4.04,1.72t3.44-0.88q1.6-0.88,3.16-7.36t1.88-11.44l0.32-2.72q-4.4,3.28-9.4,8.48t-5.16,6.88q-0.08,0.48-0.08,0.88z M287.1616,123.48q-0.4,0.08-1.72,0.08t-2.64-1.04t-1.32-2.68t0.6-3.64t0.84-3.04q-9.2,10.72-14.4,10.72q-3.28,0-3.6-4.08l0-0.56q0-3.44,4.16-9.28q-2.32,2.08-4.72,4.8q-0.32,0.32-0.8,0.32q-0.32,0-0.32-0.4t0.72-1.36l11.04-12.96q2.08-2.4,4.24-2.4t2.16,1.44q0,0.56-0.48,1.04q-3.2,2.96-8.04,9.84t-4.84,10.16q0,1.44,0.96,1.44q3.36,0,9.76-6.64q2.24-2.24,8.32-9.88t8-7.64q2.88,0,2.88,2.24q0,0.8-3.36,4.64q-4.56,5.52-6.96,9t-2.4,5.64t1.2,2.16q0.56,0,1.28-0.32q5.52-2.4,13.2-11.2q0.48-0.56,0.96-0.56t0.48,0.52t-0.56,1.16q-3.44,4-8.08,8.04t-6.56,4.44z M318.6152,123.4q-6,0-6-6.64q0-3.36,1.76-7.36t3.84-6.72q-0.4,0.08-1.04,0.08q-1.92,0-3.2-2.72l-5.92,7.68q-4.96,6.16-5.76,6.16q-0.4,0-0.4-0.32q0-0.8,1.36-2.32q6.96-8.08,9.84-13.68q1.84-6.96,4.64-6.96q1.84,0,1.84,1.6t-2,4.08l-1.92,2.56q0,1.68,2.48,1.68q1.44,0,3.2-1.04l2.08-1.28q0.16-0.08,0.8-0.08t1.36,0.8t0.48,1.44l-5.52,6.96q-5.12,6.56-5.12,10.36t3.52,3.8q3.68,0,9.04-3.92q3.2-2.32,5.84-5.2q2.48-2.88,2.72-2.88q0.56,0,0.56,0.6t-0.72,1.4l-2.56,2.88q-2.16,2.24-4.8,4.32q-6.32,4.72-10.4,4.72z M341.4288,124.04q-0.88,0-1.6-0.24q-5.12-1.44-5.12-5.76q0-5.6,7.04-12.96t12.64-7.36q1.84,0,3,1t1.16,2.44q0,4.48-6.76,8.56t-11,4.08q-0.64,0-1.12-0.16q-1.2,2.16-1.2,4.56q0,4.16,3.96,4.16t10.28-5.36q4.88-3.92,8.32-8.32q0.72-0.96,1.24-0.96t0.52,0.48t-0.64,1.36q-4.32,5.68-10.4,10.08t-10.32,4.4z M356.5488,101q0-0.96-2.04-0.96t-5.8,3.12q-5.04,4.16-7.84,8.72q0.48,0.16,1.04,0.16q3.04,0,8.12-3.24t6.36-7.08q0.16-0.4,0.16-0.72z"/><path fill="#ffffff" d="M388.5904,79.816q-1.036,0.42-1.778,0.42t-0.742-0.308q0-0.196,0.826-0.224t1.19-0.196q1.064-0.56,1.064-1.652q0-0.56-0.308-1.176q-0.896-1.596-4.34-1.596q-1.988,0-3.976,0.602t-3.332,1.848t-1.344,2.31q0,1.624,3.22,2.38l3.304,0.616q1.988,0.364,2.968,1.008q1.288,0.784,1.288,2.24q0,0.588-0.196,1.26q-0.896,3.024-4.62,4.62q-3.108,1.372-7.336,1.372q-1.204,0-2.1-0.112q0.896,0.504,2.352,0.868q0.112,0.028,0.112,0.112q0,0.252-0.588,0.252q-1.148,0-2.856-1.372q-2.324-0.364-3.472-1.288q-0.728-0.588-1.344-1.736t-0.616-2.072t0.364-1.54q0.84-1.484,2.128-1.484q0.98,0,1.148,1.652q0.392,3.192,0.532,3.64q0.42,1.372,1.428,2.324q1.176,0.252,2.548,0.252q3.024,0,5.936-1.204t4.2-3.416q0.532-0.868,0.532-1.54q0-1.316-2.324-2.044l-4.928-1.12q-1.512-0.364-2.422-1.204t-0.91-1.932q0-1.68,2.1-3.36q1.596-1.288,3.906-2.002t4.536-0.714t3.682,0.644q1.876,0.868,1.876,2.534t-1.708,2.338z M370.5584,92.304q-1.624-1.792-2.072-4.9q-0.252-1.764-0.476-1.764t-0.42,0.126t-0.392,0.546t-0.196,1.092q0,2.156,1.512,3.696q0.756,0.784,2.044,1.204z M399.87916,83.008q0-0.168,0.168-0.168q0.504,0,0.784,0.616q0.336,0.532,0.336,1.848q0,2.016-1.764,4.13t-3.808,2.114q-0.98,0-1.582-0.952t-0.602-1.96t0.448-2.464q-0.812,0.812-2.38,2.786t-2.128,2.898q-0.28,0-0.77-0.308t-0.49-0.588q0-0.672,1.708-4.438t2.548-3.766q0.308,0,0.56,0.294t0.252,0.448t-1.526,2.884t-1.498,3.29q2.66-3.22,2.828-3.416q2.716-3.136,3.556-3.136q0.308,0,0.602,0.266t0.294,0.476t-0.784,1.246t-1.33,2.03t-0.546,2.002q0,1.764,1.176,1.764l0.364,0q1.512,0,2.758-2.31t1.246-3.71q0-1.12-0.364-1.736q-0.056-0.056-0.056-0.14z M403.85992,92.164q-0.308,0-0.56-0.084q-1.792-0.504-1.792-2.016q0-1.96,2.464-4.536t4.424-2.576q0.644,0,1.05,0.35t0.406,0.854q0,1.568-2.366,2.996t-3.85,1.428q-0.224,0-0.392-0.056q-0.42,0.756-0.42,1.596q0,1.456,1.386,1.456t3.598-1.876q1.708-1.372,2.912-2.912q0.252-0.336,0.434-0.336t0.182,0.168t-0.224,0.476q-1.512,1.988-3.64,3.528t-3.612,1.54z M409.15192,84.1q0-0.336-0.714-0.336t-2.03,1.092q-1.764,1.456-2.744,3.052q0.168,0.056,0.364,0.056q1.064,0,2.842-1.134t2.226-2.478q0.056-0.14,0.056-0.252z M420.16068,83.428l0.392-0.084q0.308,0,0.588,0.252t0.28,0.392t-1.736,2.702t-1.736,3.57q0,0.084,0.028,0.168q0.14,0.644,0.616,0.644q1.456,0,5.32-4.816q0.084-0.112,0.196-0.112t0.112,0.21t-0.252,0.546q-3.584,4.788-5.46,4.788q-0.252,0-0.476-0.084q-1.232-0.476-1.232-1.848q0-0.476,0.112-0.952l-1.736,1.68q-1.652,1.456-2.394,1.456t-1.414-0.476q-0.756-0.56-0.756-1.484q0-2.044,2.856-4.886t5.236-2.842q0.924,0,1.232,0.644q0.084,0.224,0.14,0.378t0.084,0.154z M411.78868,90.316q0,1.008,0.7,1.008q1.624,0,4.424-3.556l2.968-4.088q-0.224-0.392-0.728-0.392q-1.708,0-4.536,2.646t-2.828,4.382z M430.94544,82.784l4.032-0.056q0.084,0.056,0.084,0.084q0,0.252-3.486,0.7t-3.766,0.532q-0.532,0.476-1.96,2.842t-1.428,3.458q0,1.036,1.428,1.036q0.672,0,1.764-0.42t1.68-0.784q1.568-0.98,3.36-2.884q0.392-0.392,0.532-0.392q0.084,0,0.084,0.168t-0.42,0.672q-1.456,1.792-3.276,2.884q-2.184,1.344-4.172,1.344q-0.868,0-1.414-0.378t-0.546-1.526t1.008-3.15t1.54-2.982q-0.392,0.084-0.672,0.084q-0.812,0-0.812-0.644q0-0.476,0.672-0.672q0.084,0,0.252-0.028l1.624,0q0.504-0.644,1.148-1.484q0.784-1.008,1.064-1.008t0.7,0.224t0.42,0.532t-1.344,1.82q0.728,0.028,1.904,0.028z M444.47896,82.952q0.756,0,0.756,0.588q0,0.168-0.084,0.336q-2.52,3.5-3.024,5.292q6.524-6.524,7.924-6.524q0.14-0.028,0.252-0.028q0.784,0,0.784,0.7q0,0.14-0.056,0.28t-1.12,1.512q-1.232,1.456-2.086,2.8t-0.854,2.24t0.392,0.896q1.232,0,4.284-3.388q0.056-0.056,0.196-0.252q0.42-0.504,0.504-0.504t0.084,0.28t-0.392,0.728q-3.472,3.948-4.928,3.948q-1.372,0-1.372-1.512t1.12-3.472l1.792-2.912q-1.904,1.4-3.388,3.066t-2.702,3.234t-1.414,1.568q-0.42,0-0.658-0.35t-0.238-0.868t0.364-1.386t0.924-2.1l-1.68,1.764q-0.616,0.616-0.77,0.616t-0.154-0.182t0.224-0.406q1.036-1.036,1.792-1.988q0.728-0.952,2.996-3.64q0.252-0.336,0.532-0.336z M459.79972,85.864q0,0.98-1.876,3.276q-2.212,2.716-3.78,2.716l-0.448,0q-0.728,0-1.148-0.756q-0.336-0.532-0.336-1.176q0-1.68,2.45-4.718t3.962-3.038q1.428,0,1.428,1.512q0,0.392-0.14,1.008q0.028,0.084,0.532,0.084t1.54-0.532q-0.028,0.476-2.212,1.372q0.028,0.112,0.028,0.252z M457.97972,84.408q-0.952,0-2.702,2.24t-1.75,3.304t0.672,1.064q1.204,0,3.052-2.184t1.848-3.136q-0.448-0.252-1.12-1.288z M472.85248,83.008q0-0.168,0.168-0.168q0.504,0,0.784,0.616q0.336,0.532,0.336,1.848q0,2.016-1.764,4.13t-3.808,2.114q-0.98,0-1.582-0.952t-0.602-1.96t0.448-2.464q-0.812,0.812-2.38,2.786t-2.128,2.898q-0.28,0-0.77-0.308t-0.49-0.588q0-0.672,1.708-4.438t2.548-3.766q0.308,0,0.56,0.294t0.252,0.448t-1.526,2.884t-1.498,3.29q2.66-3.22,2.828-3.416q2.716-3.136,3.556-3.136q0.308,0,0.602,0.266t0.294,0.476t-0.784,1.246t-1.33,2.03t-0.546,2.002q0,1.764,1.176,1.764l0.364,0q1.512,0,2.758-2.31t1.246-3.71q0-1.12-0.364-1.736q-0.056-0.056-0.056-0.14z M480.10924,90.988q0,1.176-0.896,2.114t-1.218,0.938t-0.322-0.056t0.602-0.742t0.602-1.106t-0.378-0.756t-0.378-0.504q0-0.84,0.812-0.84q0.42,0,0.798,0.28t0.378,0.672z M490.28276,92.164q-0.308,0-0.56-0.084q-1.792-0.504-1.792-2.016q0-1.96,2.464-4.536t4.424-2.576q0.644,0,1.05,0.35t0.406,0.854q0,1.568-2.366,2.996t-3.85,1.428q-0.224,0-0.392-0.056q-0.42,0.756-0.42,1.596q0,1.456,1.386,1.456t3.598-1.876q1.708-1.372,2.912-2.912q0.252-0.336,0.434-0.336t0.182,0.168t-0.224,0.476q-1.512,1.988-3.64,3.528t-3.612,1.54z M495.57476,84.1q0-0.336-0.714-0.336t-2.03,1.092q-1.764,1.456-2.744,3.052q0.168,0.056,0.364,0.056q1.064,0,2.842-1.134t2.226-2.478q0.056-0.14,0.056-0.252z M501.79552,82.952q0.756,0,0.756,0.588q0,0.168-0.084,0.336q-2.52,3.5-3.024,5.292q6.524-6.524,7.924-6.524q0.14-0.028,0.252-0.028q0.784,0,0.784,0.7q0,0.14-0.056,0.28t-1.12,1.512q-1.232,1.456-2.086,2.8t-0.854,2.24t0.392,0.896q1.232,0,4.284-3.388q0.056-0.056,0.196-0.252q0.42-0.504,0.504-0.504t0.084,0.28t-0.392,0.728q-3.472,3.948-4.928,3.948q-1.372,0-1.372-1.512t1.12-3.472l1.792-2.912q-1.904,1.4-3.388,3.066t-2.702,3.234t-1.414,1.568q-0.42,0-0.658-0.35t-0.238-0.868t0.364-1.386t0.924-2.1l-1.68,1.764q-0.616,0.616-0.77,0.616t-0.154-0.182t0.224-0.406q1.036-1.036,1.792-1.988q0.728-0.952,2.996-3.64q0.252-0.336,0.532-0.336z M516.31828,80.6q0.378,0.28,0.378,0.63t-0.35,0.616t-0.77,0.266t-0.77-0.294t-0.35-0.686q0-0.812,1.064-0.812q0.42,0,0.798,0.28z M514.98828,84.184q0,0.168-2.212,3.976q-2.156,4.116-3.332,5.74q-2.548,3.64-4.788,3.64q-0.84,0-1.554-0.546t-0.714-1.092t0.252-0.546q0.028,0,0.574,0.714t1.274,0.714q2.24,0,5.096-5.068q1.764-3.164,2.408-5.124q-0.336,0.392-1.162,1.148t-1.008,0.756t-0.182-0.084q0-0.252,0.448-0.644t1.204-1.484t0.896-1.204l0.924-0.98q0.56-0.532,1.218-0.532t0.658,0.616z M523.98104,85.864q0,0.98-1.876,3.276q-2.212,2.716-3.78,2.716l-0.448,0q-0.728,0-1.148-0.756q-0.336-0.532-0.336-1.176q0-1.68,2.45-4.718t3.962-3.038q1.428,0,1.428,1.512q0,0.392-0.14,1.008q0.028,0.084,0.532,0.084t1.54-0.532q-0.028,0.476-2.212,1.372q0.028,0.112,0.028,0.252z M522.16104,84.408q-0.952,0-2.702,2.24t-1.75,3.304t0.672,1.064q1.204,0,3.052-2.184t1.848-3.136q-0.448-0.252-1.12-1.288z M524.2098,95.048q1.344,1.68,2.324,1.68q1.596,0,3.444-2.548q1.344-1.876,2.632-4.732l1.064-2.576l-4.116,3.22q-1.904,1.484-3.052,1.484q-0.616,0-0.98-0.42t-0.364-0.952q0-1.204,2.072-3.962t3.024-2.758t0.952,0.644q0,0.252-2.478,2.898t-2.478,3.57q0,0.364,0.476,0.364q0.896,0,3.598-2.1t4.074-3.472q0.308-0.364,0.868-1.092q0.532-0.616,1.176-0.616t0.644,0.616q0,0.112-1.26,1.988t-1.316,1.988q-0.868,1.68-2.66,4.9q-2.716,4.368-5.432,4.368q-0.896,0-1.568-0.77t-0.644-1.722z M546.17132,91.24q0.924,0,2.38-0.98t2.828-2.66q0.336-0.448,0.532-0.448t0.196,0.168t-1.148,1.456q-2.8,3.08-4.676,3.08q-0.924,0-1.568-0.434t-0.644-1.344t0.476-2.114q0.812-1.904,2.604-4.788q3.276-5.32,4.648-5.32q0.28,0,0.574,0.21t0.322,0.462q-0.644,0.868-2.478,3.332t-2.534,3.542t-1.05,1.61t-0.518,0.826t-0.392,0.77q-0.476,0.952-0.476,1.792t0.924,0.84z M561.49208,83.428l0.392-0.084q0.308,0,0.588,0.252t0.28,0.392t-1.736,2.702t-1.736,3.57q0,0.084,0.028,0.168q0.14,0.644,0.616,0.644q1.456,0,5.32-4.816q0.084-0.112,0.196-0.112t0.112,0.21t-0.252,0.546q-3.584,4.788-5.46,4.788q-0.252,0-0.476-0.084q-1.232-0.476-1.232-1.848q0-0.476,0.112-0.952l-1.736,1.68q-1.652,1.456-2.394,1.456t-1.414-0.476q-0.756-0.56-0.756-1.484q0-2.044,2.856-4.886t5.236-2.842q0.924,0,1.232,0.644q0.084,0.224,0.14,0.378t0.084,0.154z M553.12008,90.316q0,1.008,0.7,1.008q1.624,0,4.424-3.556l2.968-4.088q-0.224-0.392-0.728-0.392q-1.708,0-4.536,2.646t-2.828,4.382z M572.27684,82.784l4.032-0.056q0.084,0.056,0.084,0.084q0,0.252-3.486,0.7t-3.766,0.532q-0.532,0.476-1.96,2.842t-1.428,3.458q0,1.036,1.428,1.036q0.672,0,1.764-0.42t1.68-0.784q1.568-0.98,3.36-2.884q0.392-0.392,0.532-0.392q0.084,0,0.084,0.168t-0.42,0.672q-1.456,1.792-3.276,2.884q-2.184,1.344-4.172,1.344q-0.868,0-1.414-0.378t-0.546-1.526t1.008-3.15t1.54-2.982q-0.392,0.084-0.672,0.084q-0.812,0-0.812-0.644q0-0.476,0.672-0.672q0.084,0,0.252-0.028l1.624,0q0.504-0.644,1.148-1.484q0.784-1.008,1.064-1.008t0.7,0.224t0.42,0.532t-1.344,1.82q0.728,0.028,1.904,0.028z M575.9496,92.164q-0.308,0-0.56-0.084q-1.792-0.504-1.792-2.016q0-1.96,2.464-4.536t4.424-2.576q0.644,0,1.05,0.35t0.406,0.854q0,1.568-2.366,2.996t-3.85,1.428q-0.224,0-0.392-0.056q-0.42,0.756-0.42,1.596q0,1.456,1.386,1.456t3.598-1.876q1.708-1.372,2.912-2.912q0.252-0.336,0.434-0.336t0.182,0.168t-0.224,0.476q-1.512,1.988-3.64,3.528t-3.612,1.54z M581.2416,84.1q0-0.336-0.714-0.336t-2.03,1.092q-1.764,1.456-2.744,3.052q0.168,0.056,0.364,0.056q1.064,0,2.842-1.134t2.226-2.478q0.056-0.14,0.056-0.252z M588.66636,91.94q-2.1,0-2.1-2.324q0-1.176,0.616-2.576t1.344-2.352q-0.14,0.028-0.364,0.028q-0.672,0-1.12-0.952l-2.072,2.688q-1.736,2.156-2.016,2.156q-0.14,0-0.14-0.112q0-0.28,0.476-0.812q2.436-2.828,3.444-4.788q0.644-2.436,1.624-2.436q0.644,0,0.644,0.56t-0.7,1.428l-0.672,0.896q0,0.588,0.868,0.588q0.504,0,1.12-0.364l0.728-0.448q0.056-0.028,0.28-0.028t0.476,0.28t0.168,0.504l-1.932,2.436q-1.792,2.296-1.792,3.626t1.232,1.33q1.288,0,3.164-1.372q1.12-0.812,2.044-1.82q0.868-1.008,0.952-1.008q0.196,0,0.196,0.21t-0.252,0.49l-0.896,1.008q-0.756,0.784-1.68,1.512q-2.212,1.652-3.64,1.652z M599.11512,88.524q-0.196,0-0.112-0.532q0.336-1.932,2.604-5.334t3.08-3.402q0.336,0,0.742,0.126t0.406,0.35q0,0.084-0.112,0.196q-1.176,1.232-3.458,4.242t-2.576,3.682t-0.574,0.672z M599.25512,90.218q0.364,0.266,0.364,0.63t-0.35,0.63t-0.77,0.266t-0.77-0.308t-0.35-0.7q0-0.784,1.092-0.784q0.42,0,0.784,0.266z"/></svg>
